C:\Users\israe\Dropbox\PhDWork\ExperimentalData\subject2\055\P2S055W01_filtered35.mot
nRows=8
nColumns=28

name C:\Users\israe\Dropbox\PhDWork\ExperimentalData\subject2\055\P2S055W01_filtered35.mot
datacolumns 28
datarows 8
range 1.7950000000 1.8020000000
endheader
time	ground_force_1_vx	ground_force_1_vy	ground_force_1_vz	ground_force_1_px	ground_force_1_py	ground_force_1_pz	ground_moment_1_mx	ground_moment_1_my	ground_moment_1_mz	ground_force_2_vx	ground_force_2_vy	ground_force_2_vz	ground_force_2_px	ground_force_2_py	ground_force_2_pz	ground_moment_2_mx	ground_moment_2_my	ground_moment_2_mz	ground_force_3_vx	ground_force_3_vy	ground_force_3_vz	ground_force_3_px	ground_force_3_py	ground_force_3_pz	ground_moment_3_mx	ground_moment_3_my	ground_moment_3_mz
        1.7950000000	       30.1201390598	      486.1930885801	       88.4393049833	        0.1988394961	        0.0000558755	       -0.3004071324	      -75.7796804843	       -0.9585361248	       16.0337649462	        2.8080569600	      261.8067238384	      -86.1678451924	        0.2029003516	       -0.0000795827	        0.4543649445	      -10.1252434445	       -2.8137161731	      -14.6468046373	        0.0000000000	        0.0000000000	       -0.0000000000	        0.2076431971	        0.0000770316	        1.3583900146	       -0.0000000000	       -0.0000000000	       -0.0000000000	
        1.7960000000	       28.4717438134	      487.5804700547	       88.6545673019	        0.1988394961	        0.0000558755	       -0.3004071324	      -75.7622866517	       -1.2106242034	       16.2455341072	        2.3745030752	      254.7250065885	      -83.7748043915	        0.2029003516	       -0.0000795827	        0.4543649445	       -9.6712950975	       -2.7181572323	      -14.2703366149	        0.0000000000	        0.0000000000	       -0.0000000000	        0.2076431971	        0.0000770316	        1.3583900146	       -0.0000000000	       -0.0000000000	       -0.0000000000	
        1.7970000000	       26.7875373489	      488.8710309777	       88.9060609178	        0.1988394961	        0.0000558755	       -0.3004071324	      -75.7364424914	       -1.4669998887	       16.4581818767	        1.9142198004	      247.7429678286	      -81.3563636820	        0.2029003516	       -0.0000795827	        0.4543649445	       -9.2259173889	       -2.6272021906	      -13.8997347498	        0.0000000000	        0.0000000000	       -0.0000000000	        0.2076431971	        0.0000770316	        1.3583900146	       -0.0000000000	       -0.0000000000	       -0.0000000000	
        1.7980000000	       25.0787827543	      490.0552850068	       89.1762995872	        0.1988394961	        0.0000558755	       -0.3004071324	      -75.7013336767	       -1.7260718351	       16.6701513546	        1.4343344332	      240.8644323332	      -78.9209514143	        0.2029003516	       -0.0000795827	        0.4543649445	       -8.7901444701	       -2.5408493918	      -13.5340166184	        0.0000000000	        0.0000000000	       -0.0000000000	        0.2076431971	        0.0000770316	        1.3583900146	       -0.0000000000	       -0.0000000000	       -0.0000000000	
        1.7990000000	       23.3555790566	      491.1307360680	       89.4479231868	        0.1988394961	        0.0000558755	       -0.3004071324	      -75.6564314203	       -1.9863692704	       16.8802600348	        0.9457224654	      234.0918279132	      -76.4782903322	        0.2029003516	       -0.0000795827	        0.4543649445	       -8.3655238459	       -2.4587220510	      -13.1721496394	        0.0000000000	        0.0000000000	       -0.0000000000	        0.2076431971	        0.0000770316	        1.3583900146	       -0.0000000000	       -0.0000000000	       -0.0000000000	
        1.8000000000	       21.6267782121	      492.0996284305	       89.7049001319	        0.1988394961	        0.0000558755	       -0.3004071324	      -75.6012772310	       -2.2465185773	       17.0874633100	        0.4608909091	      227.4264074861	      -74.0384906835	        0.2029003516	       -0.0000795827	        0.4543649445	       -7.9533712156	       -2.3801461618	      -12.8132082320	        0.0000000000	        0.0000000000	       -0.0000000000	        0.2076431971	        0.0000770316	        1.3583900146	       -0.0000000000	       -0.0000000000	       -0.0000000000	
        1.8010000000	       19.9003068046	      492.9674408413	       89.9336199022	        0.1988394961	        0.0000558755	       -0.3004071324	      -75.5354032886	       -2.5053806173	       17.2906921929	       -0.0084419478	      220.8688861662	      -71.6102877052	        0.2029003516	       -0.0000795827	        0.4543649445	       -7.5542643317	       -2.3042456223	      -12.4564940352	        0.0000000000	        0.0000000000	       -0.0000000000	        0.2076431971	        0.0000770316	        1.3583900146	       -0.0000000000	       -0.0000000000	       -0.0000000000	
        1.8020000000	       18.1832021256	      493.7433943171	       90.1237436676	        0.1988394961	        0.0000558755	       -0.3004071324	      -75.4588356876	       -2.7622422890	       17.4890149881	       -0.4532465641	      214.4198442268	      -69.2001007313	        0.2029003516	       -0.0000795827	        0.4543649445	       -7.1682163639	       -2.2300454170	      -12.1016346899	        0.0000000000	        0.0000000000	       -0.0000000000	        0.2076431971	        0.0000770316	        1.3583900146	       -0.0000000000	       -0.0000000000	       -0.0000000000	
